<mxfile host="app.diagrams.net" modified="2023-11-15T02:19:02.713Z" agent="Mozilla/5.0 (Windows NT 10.0; Win64; x64) AppleWebKit/537.36 (KHTML, like Gecko) Chrome/119.0.0.0 Safari/537.36" etag="iuabfSDm3cYY6pxZXlPe" version="22.1.1" type="device">
  <diagram name="Page-1" id="A9_ACaiR18E_FX-Uw-fT">
    <mxGraphModel dx="1434" dy="758" grid="1" gridSize="10" guides="1" tooltips="1" connect="1" arrows="1" fold="1" page="1" pageScale="1" pageWidth="1169" pageHeight="827" math="0" shadow="0">
      <root>
        <mxCell id="0" />
        <mxCell id="1" parent="0" />
        <mxCell id="T0SmEL0752_9b_b9wnKk-5" style="edgeStyle=orthogonalEdgeStyle;rounded=0;orthogonalLoop=1;jettySize=auto;html=1;exitX=0.5;exitY=1;exitDx=0;exitDy=0;entryX=0.5;entryY=0;entryDx=0;entryDy=0;dashed=1;" edge="1" parent="1" source="T0SmEL0752_9b_b9wnKk-1" target="T0SmEL0752_9b_b9wnKk-3">
          <mxGeometry relative="1" as="geometry">
            <Array as="points">
              <mxPoint x="585" y="90" />
              <mxPoint x="740" y="90" />
            </Array>
          </mxGeometry>
        </mxCell>
        <mxCell id="T0SmEL0752_9b_b9wnKk-6" style="edgeStyle=orthogonalEdgeStyle;rounded=0;orthogonalLoop=1;jettySize=auto;html=1;exitX=0.5;exitY=1;exitDx=0;exitDy=0;entryX=0.5;entryY=0;entryDx=0;entryDy=0;dashed=1;" edge="1" parent="1" source="T0SmEL0752_9b_b9wnKk-1" target="T0SmEL0752_9b_b9wnKk-2">
          <mxGeometry relative="1" as="geometry" />
        </mxCell>
        <mxCell id="T0SmEL0752_9b_b9wnKk-7" style="edgeStyle=orthogonalEdgeStyle;rounded=0;orthogonalLoop=1;jettySize=auto;html=1;exitX=0.5;exitY=1;exitDx=0;exitDy=0;entryX=0.5;entryY=0;entryDx=0;entryDy=0;dashed=1;" edge="1" parent="1" source="T0SmEL0752_9b_b9wnKk-1" target="T0SmEL0752_9b_b9wnKk-4">
          <mxGeometry relative="1" as="geometry">
            <Array as="points">
              <mxPoint x="585" y="90" />
              <mxPoint x="430" y="90" />
            </Array>
          </mxGeometry>
        </mxCell>
        <mxCell id="T0SmEL0752_9b_b9wnKk-1" value="UserForm" style="rounded=0;whiteSpace=wrap;html=1;" vertex="1" parent="1">
          <mxGeometry x="525" y="40" width="120" height="40" as="geometry" />
        </mxCell>
        <mxCell id="T0SmEL0752_9b_b9wnKk-2" value="OAuthButton" style="rounded=0;whiteSpace=wrap;html=1;" vertex="1" parent="1">
          <mxGeometry x="525" y="110" width="120" height="40" as="geometry" />
        </mxCell>
        <mxCell id="T0SmEL0752_9b_b9wnKk-3" value="AuthInfoModal" style="rounded=0;whiteSpace=wrap;html=1;" vertex="1" parent="1">
          <mxGeometry x="680" y="110" width="120" height="40" as="geometry" />
        </mxCell>
        <mxCell id="T0SmEL0752_9b_b9wnKk-4" value="FormInput" style="rounded=0;whiteSpace=wrap;html=1;" vertex="1" parent="1">
          <mxGeometry x="370" y="110" width="120" height="40" as="geometry" />
        </mxCell>
      </root>
    </mxGraphModel>
  </diagram>
</mxfile>
